# xmcd
#
# Track frame offsets:
#	150
#	26584
#	104108
#	119173
#	142845
#	170015
#	202363
#
# Disc length: 3013
#
# Revision: 2
# Processed by: cddbd v1.5.1PL0 Copyright (c) Steve Scherf et al.
# Submitted via: audiograbber 1.80
# Normalized: r1:DSETVAR1
#
DISCID=6f0bc307
DTITLE=Various Artist - Legendary Grooves [CD1)
DYEAR=1900
DGENRE=
TTITLE0=The Unknown Cases - Masimba Bele
TTITLE1=Rare Earth - Ma
TTITLE2=Edwin Starr - War
TTITLE3=Gil Scott-Heron - Brian Jackson - The Bottle
TTITLE4=Lalo Schifrin - Jaws
TTITLE5=The Sensational Alex Harvey Band - Faith Healer
TTITLE6=Flora Purim and Airto - Move It On Up
EXTD=
EXTT0=
EXTT1=
EXTT2=
EXTT3=
EXTT4=
EXTT5=
EXTT6=
PLAYORDER=
